<svg id="Layer_1" data-name="Layer 1" xmlns="http://www.w3.org/2000/svg" viewBox="0 0 64 64"><title>whale</title><path d="M23,8c2.43.51,3.18,1.87,3.4,2.87a.31.31,0,0,0,.58,0C28.34,7.36,26.31,4,23.25,4,19.88,4,19,7.17,23,8Z"/><path d="M28.75,11.59a.44.44,0,0,0,.72.31,2.94,2.94,0,0,1,1.33-.57,1.57,1.57,0,0,0,.26-3C28.87,7.6,28.68,10.1,28.75,11.59Z"/><path d="M46.72,10.37l-23,3.83A24.69,24.69,0,0,0,4.84,29.39,25.78,25.78,0,0,0,3,39v1.23a13.65,13.65,0,0,0,2.47,8A13.38,13.38,0,0,0,17.1,53.77L21,53.55a3.29,3.29,0,0,1,3,1.57l1.29,2.12A5.76,5.76,0,0,0,30.23,60h0a1,1,0,0,0,1-1.32L29.32,53a4.3,4.3,0,0,0-1-1.7l-.37-.37a1.28,1.28,0,0,1,0-1.81l.31-.31a4.3,4.3,0,0,0,1.09-1.85l1.79-6.2a.58.58,0,0,0-.56-.74h-.12a5.55,5.55,0,0,0-5,3.07l-1.56,3.12A3.29,3.29,0,0,1,21,48h-.11A9.26,9.26,0,0,1,15,45.92a5.39,5.39,0,0,1-1.45-1.69,4.72,4.72,0,0,1,1.12-5.74,2.35,2.35,0,0,1,1.52-.53l39.18-.25A1.68,1.68,0,0,0,57,36a2,2,0,0,0-2-2H38a1,1,0,0,1,0-2H57.42A3.58,3.58,0,0,0,61,28.42V22.47A12.26,12.26,0,0,0,46.72,10.37Z"/></svg>